<?xml version="1.0" encoding="UTF-8" standalone="no"?><svg xmlns="http://www.w3.org/2000/svg" xmlns:xlink="http://www.w3.org/1999/xlink" contentScriptType="application/ecmascript" contentStyleType="text/css" height="1163px" preserveAspectRatio="none" style="width:1226px;height:1163px;" version="1.1" viewBox="0 0 1226 1163" width="1226px" zoomAndPan="magnify"><defs><filter height="300%" id="fxehnzv8kg68b" width="300%" x="-1" y="-1"><feGaussianBlur result="blurOut" stdDeviation="2.0"/><feColorMatrix in="blurOut" result="blurOut2" type="matrix" values="0 0 0 0 0 0 0 0 0 0 0 0 0 0 0 0 0 0 .4 0"/><feOffset dx="4.0" dy="4.0" in="blurOut2" result="blurOut3"/><feBlend in="SourceGraphic" in2="blurOut3" mode="normal"/></filter></defs><g><text fill="#000000" font-family="sans-serif" font-size="18" lengthAdjust="spacingAndGlyphs" textLength="264" x="477.5" y="28.708">"Betalingsforløb med NETS."</text><line style="stroke: #A80036; stroke-width: 1.0; stroke-dasharray: 5.0,5.0;" x1="28" x2="28" y1="123.25" y2="1079.3672"/><line style="stroke: #A80036; stroke-width: 1.0; stroke-dasharray: 5.0,5.0;" x1="302.5" x2="302.5" y1="123.25" y2="1079.3672"/><line style="stroke: #A80036; stroke-width: 1.0; stroke-dasharray: 5.0,5.0;" x1="576.5" x2="576.5" y1="123.25" y2="1079.3672"/><line style="stroke: #A80036; stroke-width: 1.0; stroke-dasharray: 5.0,5.0;" x1="842.5" x2="842.5" y1="123.25" y2="1079.3672"/><text fill="#000000" font-family="sans-serif" font-size="14" lengthAdjust="spacingAndGlyphs" textLength="40" x="5" y="119.9482">Låner</text><ellipse cx="28" cy="49.9531" fill="#FEFECE" filter="url(#fxehnzv8kg68b)" rx="8" ry="8" style="stroke: #A80036; stroke-width: 2.0;"/><path d="M28,57.9531 L28,84.9531 M15,65.9531 L41,65.9531 M28,84.9531 L15,99.9531 M28,84.9531 L41,99.9531 " fill="none" filter="url(#fxehnzv8kg68b)" style="stroke: #A80036; stroke-width: 2.0;"/><text fill="#000000" font-family="sans-serif" font-size="14" lengthAdjust="spacingAndGlyphs" textLength="40" x="5" y="1091.3623">Låner</text><ellipse cx="28" cy="1104.6641" fill="#FEFECE" filter="url(#fxehnzv8kg68b)" rx="8" ry="8" style="stroke: #A80036; stroke-width: 2.0;"/><path d="M28,1112.6641 L28,1139.6641 M15,1120.6641 L41,1120.6641 M28,1139.6641 L15,1154.6641 M28,1139.6641 L41,1154.6641 " fill="none" filter="url(#fxehnzv8kg68b)" style="stroke: #A80036; stroke-width: 2.0;"/><text fill="#000000" font-family="sans-serif" font-size="14" lengthAdjust="spacingAndGlyphs" textLength="67" x="266.5" y="119.9482">DDB CMS</text><path d="M282.5,78.9531 L282.5,102.9531 M282.5,90.9531 L299.5,90.9531 " fill="none" filter="url(#fxehnzv8kg68b)" style="stroke: #A80036; stroke-width: 2.0;"/><ellipse cx="311.5" cy="90.9531" fill="#FEFECE" filter="url(#fxehnzv8kg68b)" rx="12" ry="12" style="stroke: #A80036; stroke-width: 2.0;"/><text fill="#000000" font-family="sans-serif" font-size="14" lengthAdjust="spacingAndGlyphs" textLength="67" x="266.5" y="1091.3623">DDB CMS</text><path d="M282.5,1098.6641 L282.5,1122.6641 M282.5,1110.6641 L299.5,1110.6641 " fill="none" filter="url(#fxehnzv8kg68b)" style="stroke: #A80036; stroke-width: 2.0;"/><ellipse cx="311.5" cy="1110.6641" fill="#FEFECE" filter="url(#fxehnzv8kg68b)" rx="12" ry="12" style="stroke: #A80036; stroke-width: 2.0;"/><text fill="#000000" font-family="sans-serif" font-size="14" lengthAdjust="spacingAndGlyphs" textLength="27" x="560.5" y="119.9482">FBS</text><path d="M556.5,78.9531 L556.5,102.9531 M556.5,90.9531 L573.5,90.9531 " fill="none" filter="url(#fxehnzv8kg68b)" style="stroke: #A80036; stroke-width: 2.0;"/><ellipse cx="585.5" cy="90.9531" fill="#FEFECE" filter="url(#fxehnzv8kg68b)" rx="12" ry="12" style="stroke: #A80036; stroke-width: 2.0;"/><text fill="#000000" font-family="sans-serif" font-size="14" lengthAdjust="spacingAndGlyphs" textLength="27" x="560.5" y="1091.3623">FBS</text><path d="M556.5,1098.6641 L556.5,1122.6641 M556.5,1110.6641 L573.5,1110.6641 " fill="none" filter="url(#fxehnzv8kg68b)" style="stroke: #A80036; stroke-width: 2.0;"/><ellipse cx="585.5" cy="1110.6641" fill="#FEFECE" filter="url(#fxehnzv8kg68b)" rx="12" ry="12" style="stroke: #A80036; stroke-width: 2.0;"/><text fill="#000000" font-family="sans-serif" font-size="14" lengthAdjust="spacingAndGlyphs" textLength="37" x="821.5" y="119.9482">NETS</text><path d="M822.5,78.9531 L822.5,102.9531 M822.5,90.9531 L839.5,90.9531 " fill="none" filter="url(#fxehnzv8kg68b)" style="stroke: #A80036; stroke-width: 2.0;"/><ellipse cx="851.5" cy="90.9531" fill="#FEFECE" filter="url(#fxehnzv8kg68b)" rx="12" ry="12" style="stroke: #A80036; stroke-width: 2.0;"/><text fill="#000000" font-family="sans-serif" font-size="14" lengthAdjust="spacingAndGlyphs" textLength="37" x="821.5" y="1091.3623">NETS</text><path d="M822.5,1098.6641 L822.5,1122.6641 M822.5,1110.6641 L839.5,1110.6641 " fill="none" filter="url(#fxehnzv8kg68b)" style="stroke: #A80036; stroke-width: 2.0;"/><ellipse cx="851.5" cy="1110.6641" fill="#FEFECE" filter="url(#fxehnzv8kg68b)" rx="12" ry="12" style="stroke: #A80036; stroke-width: 2.0;"/><line style="stroke: #A80036; stroke-width: 1.0;" x1="28" x2="70" y1="154.3828" y2="154.3828"/><line style="stroke: #A80036; stroke-width: 1.0;" x1="70" x2="70" y1="154.3828" y2="167.3828"/><line style="stroke: #A80036; stroke-width: 1.0;" x1="29" x2="70" y1="167.3828" y2="167.3828"/><polygon fill="#A80036" points="39,163.3828,29,167.3828,39,171.3828,35,167.3828" style="stroke: #A80036; stroke-width: 1.0;"/><text fill="#000000" font-family="sans-serif" font-size="13" font-weight="bold" lengthAdjust="spacingAndGlyphs" textLength="9" x="35" y="149.3169">1</text><text fill="#000000" font-family="sans-serif" font-size="13" lengthAdjust="spacingAndGlyphs" textLength="71" x="48" y="149.3169">Logger ind.</text><path d="M131,139.75 L131,164.75 L473,164.75 L473,149.75 L463,139.75 L131,139.75 " fill="#FBFB77" filter="url(#fxehnzv8kg68b)" style="stroke: #A80036; stroke-width: 1.0;"/><path d="M463,139.75 L463,149.75 L473,149.75 L463,139.75 " fill="#FBFB77" style="stroke: #A80036; stroke-width: 1.0;"/><text fill="#000000" font-family="sans-serif" font-size="13" lengthAdjust="spacingAndGlyphs" textLength="321" x="137" y="156.8169">Log ind flow behandles i separat sekvensdiagram.</text><polygon fill="#A80036" points="291,192.5156,301,196.5156,291,200.5156,295,196.5156" style="stroke: #A80036; stroke-width: 1.0;"/><line style="stroke: #A80036; stroke-width: 1.0;" x1="28" x2="297" y1="196.5156" y2="196.5156"/><text fill="#000000" font-family="sans-serif" font-size="13" font-weight="bold" lengthAdjust="spacingAndGlyphs" textLength="9" x="35" y="191.4497">2</text><text fill="#000000" font-family="sans-serif" font-size="13" lengthAdjust="spacingAndGlyphs" textLength="152" x="48" y="191.4497">Åben mellemværender.</text><polygon fill="#A80036" points="565,221.6484,575,225.6484,565,229.6484,569,225.6484" style="stroke: #A80036; stroke-width: 1.0;"/><line style="stroke: #A80036; stroke-width: 1.0;" x1="303" x2="571" y1="225.6484" y2="225.6484"/><text fill="#000000" font-family="sans-serif" font-size="13" font-weight="bold" lengthAdjust="spacingAndGlyphs" textLength="8" x="310" y="220.5825">3</text><text fill="#000000" font-family="sans-serif" font-size="13" lengthAdjust="spacingAndGlyphs" textLength="149" x="322" y="220.5825">Hent mellemværender.</text><polygon fill="#A80036" points="314,250.7813,304,254.7813,314,258.7813,310,254.7813" style="stroke: #A80036; stroke-width: 1.0;"/><line style="stroke: #A80036; stroke-width: 1.0; stroke-dasharray: 2.0,2.0;" x1="308" x2="576" y1="254.7813" y2="254.7813"/><text fill="#000000" font-family="sans-serif" font-size="13" font-weight="bold" lengthAdjust="spacingAndGlyphs" textLength="9" x="320" y="249.7153">4</text><text fill="#000000" font-family="sans-serif" font-size="13" lengthAdjust="spacingAndGlyphs" textLength="151" x="333" y="249.7153">Send mellemværender.</text><polygon fill="#A80036" points="39,279.9141,29,283.9141,39,287.9141,35,283.9141" style="stroke: #A80036; stroke-width: 1.0;"/><line style="stroke: #A80036; stroke-width: 1.0; stroke-dasharray: 2.0,2.0;" x1="33" x2="302" y1="283.9141" y2="283.9141"/><text fill="#000000" font-family="sans-serif" font-size="13" font-weight="bold" lengthAdjust="spacingAndGlyphs" textLength="9" x="45" y="278.8481">5</text><text fill="#000000" font-family="sans-serif" font-size="13" lengthAdjust="spacingAndGlyphs" textLength="138" x="58" y="278.8481">Vis mellemværender.</text><polygon fill="#A80036" points="291,309.0469,301,313.0469,291,317.0469,295,313.0469" style="stroke: #A80036; stroke-width: 1.0;"/><line style="stroke: #A80036; stroke-width: 1.0;" x1="28" x2="297" y1="313.0469" y2="313.0469"/><text fill="#000000" font-family="sans-serif" font-size="13" font-weight="bold" lengthAdjust="spacingAndGlyphs" textLength="9" x="35" y="307.981">6</text><text fill="#000000" font-family="sans-serif" font-size="13" lengthAdjust="spacingAndGlyphs" textLength="151" x="48" y="307.981">Betal mellemværender.</text><polygon fill="#A80036" points="831,338.1797,841,342.1797,831,346.1797,835,342.1797" style="stroke: #A80036; stroke-width: 1.0;"/><line style="stroke: #A80036; stroke-width: 1.0;" x1="303" x2="837" y1="342.1797" y2="342.1797"/><text fill="#000000" font-family="sans-serif" font-size="13" font-weight="bold" lengthAdjust="spacingAndGlyphs" textLength="9" x="310" y="337.1138">7</text><text fill="#000000" font-family="sans-serif" font-size="13" lengthAdjust="spacingAndGlyphs" textLength="161" x="323" y="337.1138">Redirect låneren til NETS.</text><polygon fill="#A80036" points="39,367.3125,29,371.3125,39,375.3125,35,371.3125" style="stroke: #A80036; stroke-width: 1.0;"/><line style="stroke: #A80036; stroke-width: 1.0; stroke-dasharray: 2.0,2.0;" x1="33" x2="842" y1="371.3125" y2="371.3125"/><text fill="#000000" font-family="sans-serif" font-size="13" font-weight="bold" lengthAdjust="spacingAndGlyphs" textLength="9" x="45" y="366.2466">8</text><text fill="#000000" font-family="sans-serif" font-size="13" lengthAdjust="spacingAndGlyphs" textLength="171" x="58" y="366.2466">Vis formular til indbetaling.</text><polygon fill="#A80036" points="831,411.5781,841,415.5781,831,419.5781,835,415.5781" style="stroke: #A80036; stroke-width: 1.0;"/><line style="stroke: #A80036; stroke-width: 1.0;" x1="28" x2="837" y1="415.5781" y2="415.5781"/><text fill="#000000" font-family="sans-serif" font-size="13" font-weight="bold" lengthAdjust="spacingAndGlyphs" textLength="9" x="35" y="402.9458">9</text><text fill="#000000" font-family="sans-serif" font-size="13" lengthAdjust="spacingAndGlyphs" textLength="147" x="48" y="395.3794">Indtast kortoplysninger</text><text fill="#000000" font-family="sans-serif" font-size="13" lengthAdjust="spacingAndGlyphs" textLength="159" x="52" y="410.5122">og klik på betal knappen.</text><rect fill="#EEEEEE" filter="url(#fxehnzv8kg68b)" height="3" style="stroke: #EEEEEE; stroke-width: 1.0;" width="1219" x="0" y="436.5781"/><line style="stroke: #000000; stroke-width: 1.0;" x1="0" x2="1219" y1="436.5781" y2="436.5781"/><line style="stroke: #000000; stroke-width: 1.0;" x1="0" x2="1219" y1="439.5781" y2="439.5781"/><line style="stroke: #A80036; stroke-width: 1.0;" x1="843" x2="885" y1="472.7109" y2="472.7109"/><line style="stroke: #A80036; stroke-width: 1.0;" x1="885" x2="885" y1="472.7109" y2="485.7109"/><line style="stroke: #A80036; stroke-width: 1.0;" x1="844" x2="885" y1="485.7109" y2="485.7109"/><polygon fill="#A80036" points="854,481.7109,844,485.7109,854,489.7109,850,485.7109" style="stroke: #A80036; stroke-width: 1.0;"/><text fill="#000000" font-family="sans-serif" font-size="13" font-weight="bold" lengthAdjust="spacingAndGlyphs" textLength="19" x="850" y="467.645">10</text><text fill="#000000" font-family="sans-serif" font-size="13" lengthAdjust="spacingAndGlyphs" textLength="339" x="873" y="467.645">Gennemfør 3D Secure for at sikre den videre proces.</text><line style="stroke: #A80036; stroke-width: 1.0;" x1="843" x2="885" y1="514.8438" y2="514.8438"/><line style="stroke: #A80036; stroke-width: 1.0;" x1="885" x2="885" y1="514.8438" y2="527.8438"/><line style="stroke: #A80036; stroke-width: 1.0;" x1="844" x2="885" y1="527.8438" y2="527.8438"/><polygon fill="#A80036" points="854,523.8438,844,527.8438,854,531.8438,850,527.8438" style="stroke: #A80036; stroke-width: 1.0;"/><text fill="#000000" font-family="sans-serif" font-size="13" font-weight="bold" lengthAdjust="spacingAndGlyphs" textLength="18" x="850" y="509.7778">11</text><text fill="#000000" font-family="sans-serif" font-size="13" lengthAdjust="spacingAndGlyphs" textLength="175" x="872" y="509.7778">Reservér det betalte beløb.</text><polygon fill="#A80036" points="314,552.9766,304,556.9766,314,560.9766,310,556.9766" style="stroke: #A80036; stroke-width: 1.0;"/><line style="stroke: #A80036; stroke-width: 1.0; stroke-dasharray: 2.0,2.0;" x1="308" x2="842" y1="556.9766" y2="556.9766"/><text fill="#000000" font-family="sans-serif" font-size="13" font-weight="bold" lengthAdjust="spacingAndGlyphs" textLength="18" x="320" y="551.9106">12</text><text fill="#000000" font-family="sans-serif" font-size="13" lengthAdjust="spacingAndGlyphs" textLength="194" x="342" y="551.9106">Send oplysninger om betaling.</text><polygon fill="#A80036" points="565,582.1094,575,586.1094,565,590.1094,569,586.1094" style="stroke: #A80036; stroke-width: 1.0;"/><line style="stroke: #A80036; stroke-width: 1.0;" x1="303" x2="571" y1="586.1094" y2="586.1094"/><text fill="#000000" font-family="sans-serif" font-size="13" font-weight="bold" lengthAdjust="spacingAndGlyphs" textLength="17" x="310" y="581.0435">13</text><text fill="#000000" font-family="sans-serif" font-size="13" lengthAdjust="spacingAndGlyphs" textLength="194" x="331" y="581.0435">Send oplysninger om betaling.</text><line style="stroke: #A80036; stroke-width: 1.0;" x1="577" x2="619" y1="645.5078" y2="645.5078"/><line style="stroke: #A80036; stroke-width: 1.0;" x1="619" x2="619" y1="645.5078" y2="658.5078"/><line style="stroke: #A80036; stroke-width: 1.0;" x1="578" x2="619" y1="658.5078" y2="658.5078"/><polygon fill="#A80036" points="588,654.5078,578,658.5078,588,662.5078,584,658.5078" style="stroke: #A80036; stroke-width: 1.0;"/><text fill="#000000" font-family="sans-serif" font-size="13" font-weight="bold" lengthAdjust="spacingAndGlyphs" textLength="18" x="584" y="625.3091">14</text><text fill="#000000" font-family="sans-serif" font-size="13" lengthAdjust="spacingAndGlyphs" textLength="226" x="606" y="610.1763">Opdatér lånerens mellemværender</text><text fill="#000000" font-family="sans-serif" font-size="13" lengthAdjust="spacingAndGlyphs" textLength="99" x="610" y="625.3091">efter betalinger</text><text fill="#000000" font-family="sans-serif" font-size="13" lengthAdjust="spacingAndGlyphs" textLength="158" x="610" y="640.4419">og udregn nyt restbeløb.</text><polygon fill="#A80036" points="314,698.7734,304,702.7734,314,706.7734,310,702.7734" style="stroke: #A80036; stroke-width: 1.0;"/><line style="stroke: #A80036; stroke-width: 1.0; stroke-dasharray: 2.0,2.0;" x1="308" x2="576" y1="702.7734" y2="702.7734"/><text fill="#000000" font-family="sans-serif" font-size="13" font-weight="bold" lengthAdjust="spacingAndGlyphs" textLength="18" x="320" y="690.1411">15</text><text fill="#000000" font-family="sans-serif" font-size="13" lengthAdjust="spacingAndGlyphs" textLength="113" x="342" y="682.5747">Send betaling OK,</text><text fill="#000000" font-family="sans-serif" font-size="13" lengthAdjust="spacingAndGlyphs" textLength="193" x="346" y="697.7075">hvis opdatering gennemføres.</text><polygon fill="#A80036" points="831,743.0391,841,747.0391,831,751.0391,835,747.0391" style="stroke: #A80036; stroke-width: 1.0;"/><line style="stroke: #A80036; stroke-width: 1.0;" x1="303" x2="837" y1="747.0391" y2="747.0391"/><text fill="#000000" font-family="sans-serif" font-size="13" font-weight="bold" lengthAdjust="spacingAndGlyphs" textLength="18" x="310" y="734.4067">16</text><text fill="#000000" font-family="sans-serif" font-size="13" lengthAdjust="spacingAndGlyphs" textLength="254" x="332" y="726.8403">Send anmodning om at beløbet hæves,</text><text fill="#000000" font-family="sans-serif" font-size="13" lengthAdjust="spacingAndGlyphs" textLength="140" x="336" y="741.9731">hvis FBS har givet OK.</text><line style="stroke: #A80036; stroke-width: 1.0;" x1="843" x2="885" y1="791.3047" y2="791.3047"/><line style="stroke: #A80036; stroke-width: 1.0;" x1="885" x2="885" y1="791.3047" y2="804.3047"/><line style="stroke: #A80036; stroke-width: 1.0;" x1="844" x2="885" y1="804.3047" y2="804.3047"/><polygon fill="#A80036" points="854,800.3047,844,804.3047,854,808.3047,850,804.3047" style="stroke: #A80036; stroke-width: 1.0;"/><text fill="#000000" font-family="sans-serif" font-size="13" font-weight="bold" lengthAdjust="spacingAndGlyphs" textLength="18" x="850" y="778.6724">17</text><text fill="#000000" font-family="sans-serif" font-size="13" lengthAdjust="spacingAndGlyphs" textLength="82" x="872" y="771.106">Hæv beløbet</text><text fill="#000000" font-family="sans-serif" font-size="13" lengthAdjust="spacingAndGlyphs" textLength="121" x="876" y="786.2388">fra lånerens konto.</text><polygon fill="#A80036" points="314,829.4375,304,833.4375,314,837.4375,310,833.4375" style="stroke: #A80036; stroke-width: 1.0;"/><line style="stroke: #A80036; stroke-width: 1.0; stroke-dasharray: 2.0,2.0;" x1="308" x2="842" y1="833.4375" y2="833.4375"/><text fill="#000000" font-family="sans-serif" font-size="13" font-weight="bold" lengthAdjust="spacingAndGlyphs" textLength="18" x="320" y="828.3716">18</text><text fill="#000000" font-family="sans-serif" font-size="13" lengthAdjust="spacingAndGlyphs" textLength="143" x="342" y="828.3716">Send beløb hævet OK.</text><rect fill="#EEEEEE" filter="url(#fxehnzv8kg68b)" height="3" style="stroke: #EEEEEE; stroke-width: 1.0;" width="1219" x="0" y="854.4375"/><line style="stroke: #000000; stroke-width: 1.0;" x1="0" x2="1219" y1="854.4375" y2="854.4375"/><line style="stroke: #000000; stroke-width: 1.0;" x1="0" x2="1219" y1="857.4375" y2="857.4375"/><polygon fill="#A80036" points="39,901.7031,29,905.7031,39,909.7031,35,905.7031" style="stroke: #A80036; stroke-width: 1.0;"/><line style="stroke: #A80036; stroke-width: 1.0; stroke-dasharray: 2.0,2.0;" x1="33" x2="842" y1="905.7031" y2="905.7031"/><text fill="#000000" font-family="sans-serif" font-size="13" font-weight="bold" lengthAdjust="spacingAndGlyphs" textLength="18" x="45" y="893.0708">19</text><text fill="#000000" font-family="sans-serif" font-size="13" lengthAdjust="spacingAndGlyphs" textLength="149" x="67" y="885.5044">Vis kvitteringsside med</text><text fill="#000000" font-family="sans-serif" font-size="13" lengthAdjust="spacingAndGlyphs" textLength="251" x="71" y="900.6372">transaktionsnummer og ordrenummer.</text><polygon fill="#A80036" points="831,935.8359,841,939.8359,831,943.8359,835,939.8359" style="stroke: #A80036; stroke-width: 1.0;"/><line style="stroke: #A80036; stroke-width: 1.0;" x1="28" x2="837" y1="939.8359" y2="939.8359"/><text fill="#000000" font-family="sans-serif" font-size="13" font-weight="bold" lengthAdjust="spacingAndGlyphs" textLength="19" x="35" y="934.77">20</text><text fill="#000000" font-family="sans-serif" font-size="13" lengthAdjust="spacingAndGlyphs" textLength="123" x="58" y="934.77">Luk kvitteringsside.</text><path d="M848,918.7031 L848,943.7031 L1142,943.7031 L1142,928.7031 L1132,918.7031 L848,918.7031 " fill="#FBFB77" filter="url(#fxehnzv8kg68b)" style="stroke: #A80036; stroke-width: 1.0;"/><path d="M1132,918.7031 L1132,928.7031 L1142,928.7031 L1132,918.7031 " fill="#FBFB77" style="stroke: #A80036; stroke-width: 1.0;"/><text fill="#000000" font-family="sans-serif" font-size="13" lengthAdjust="spacingAndGlyphs" textLength="273" x="854" y="935.77">Kvittering kan deaktiveres i NETS backend.</text><polygon fill="#A80036" points="314,969.9688,304,973.9688,314,977.9688,310,973.9688" style="stroke: #A80036; stroke-width: 1.0;"/><line style="stroke: #A80036; stroke-width: 1.0; stroke-dasharray: 2.0,2.0;" x1="308" x2="842" y1="973.9688" y2="973.9688"/><text fill="#000000" font-family="sans-serif" font-size="13" font-weight="bold" lengthAdjust="spacingAndGlyphs" textLength="18" x="320" y="968.9028">21</text><text fill="#000000" font-family="sans-serif" font-size="13" lengthAdjust="spacingAndGlyphs" textLength="171" x="342" y="968.9028">Redirect låner til DDB CMS.</text><polygon fill="#A80036" points="565,999.1016,575,1003.1016,565,1007.1016,569,1003.1016" style="stroke: #A80036; stroke-width: 1.0;"/><line style="stroke: #A80036; stroke-width: 1.0;" x1="303" x2="571" y1="1003.1016" y2="1003.1016"/><text fill="#000000" font-family="sans-serif" font-size="13" font-weight="bold" lengthAdjust="spacingAndGlyphs" textLength="18" x="310" y="998.0356">22</text><text fill="#000000" font-family="sans-serif" font-size="13" lengthAdjust="spacingAndGlyphs" textLength="227" x="332" y="998.0356">Hent opdaterede mellemværender.</text><polygon fill="#A80036" points="314,1028.2344,304,1032.2344,314,1036.2344,310,1032.2344" style="stroke: #A80036; stroke-width: 1.0;"/><line style="stroke: #A80036; stroke-width: 1.0; stroke-dasharray: 2.0,2.0;" x1="308" x2="576" y1="1032.2344" y2="1032.2344"/><text fill="#000000" font-family="sans-serif" font-size="13" font-weight="bold" lengthAdjust="spacingAndGlyphs" textLength="17" x="320" y="1027.1685">23</text><text fill="#000000" font-family="sans-serif" font-size="13" lengthAdjust="spacingAndGlyphs" textLength="229" x="341" y="1027.1685">Send opdaterede mellemværender.</text><polygon fill="#A80036" points="39,1057.3672,29,1061.3672,39,1065.3672,35,1061.3672" style="stroke: #A80036; stroke-width: 1.0;"/><line style="stroke: #A80036; stroke-width: 1.0; stroke-dasharray: 2.0,2.0;" x1="33" x2="302" y1="1061.3672" y2="1061.3672"/><text fill="#000000" font-family="sans-serif" font-size="13" font-weight="bold" lengthAdjust="spacingAndGlyphs" textLength="18" x="45" y="1056.3013">24</text><text fill="#000000" font-family="sans-serif" font-size="13" lengthAdjust="spacingAndGlyphs" textLength="229" x="67" y="1056.3013">Vis opdatererede mellemværender.</text><!--MD5=[f17942685271a699b34aa585a31e36f5]
@startuml
autonumber
title "Betalingsforløb med NETS."

actor Låner as patron
boundary "DDB CMS" as cms
boundary "FBS" as fbs
boundary NETS as dibs

patron -> patron: Logger ind.
note right: Log ind flow behandles i separat sekvensdiagram.
patron -> cms: Åben mellemværender.
cms -> fbs: Hent mellemværender.
fbs - -> cms: Send mellemværender.
cms - -> patron: Vis mellemværender.
patron -> cms: Betal mellemværender.
cms -> dibs: Redirect låneren til NETS.
dibs - -> patron: Vis formular til indbetaling. 
patron -> dibs: Indtast kortoplysninger \n og klik på betal knappen.

== ==

dibs -> dibs: Gennemfør 3D Secure for at sikre den videre proces.
dibs -> dibs: Reservér det betalte beløb.
dibs - -> cms: Send oplysninger om betaling.
cms -> fbs: Send oplysninger om betaling.
fbs -> fbs: Opdatér lånerens mellemværender \n efter betalinger \n og udregn nyt restbeløb.
fbs - -> cms: Send betaling OK, \n hvis opdatering gennemføres.
cms -> dibs: Send anmodning om at beløbet hæves, \n hvis FBS har givet OK.
dibs -> dibs: Hæv beløbet \n fra lånerens konto.
dibs - -> cms: Send beløb hævet OK.

== ==

dibs - -> patron: Vis kvitteringsside med \n transaktionsnummer og ordrenummer.
patron -> dibs: Luk kvitteringsside.
note right: Kvittering kan deaktiveres i NETS backend.
dibs - -> cms: Redirect låner til DDB CMS.
cms -> fbs: Hent opdaterede mellemværender.
fbs - -> cms: Send opdaterede mellemværender.
cms - -> patron: Vis opdatererede mellemværender.
@enduml

PlantUML version 1.2020.20beta4(Unknown compile time)
(GPL source distribution)
Java Runtime: Java(TM) SE Runtime Environment
JVM: Java HotSpot(TM) 64-Bit Server VM
Default Encoding: UTF-8
Language: en
Country: US
--></g></svg>