<?xml version="1.0" encoding="UTF-8" standalone="no"?><svg xmlns="http://www.w3.org/2000/svg" xmlns:xlink="http://www.w3.org/1999/xlink" contentScriptType="application/ecmascript" contentStyleType="text/css" height="368px" preserveAspectRatio="none" style="width:400px;height:368px;" version="1.1" viewBox="0 0 400 368" width="400px" zoomAndPan="magnify"><defs><filter height="300%" id="f1lm27spv75uu4" width="300%" x="-1" y="-1"><feGaussianBlur result="blurOut" stdDeviation="2.0"/><feColorMatrix in="blurOut" result="blurOut2" type="matrix" values="0 0 0 0 0 0 0 0 0 0 0 0 0 0 0 0 0 0 .4 0"/><feOffset dx="4.0" dy="4.0" in="blurOut2" result="blurOut3"/><feBlend in="SourceGraphic" in2="blurOut3" mode="normal"/></filter></defs><g><line style="stroke: #A80036; stroke-width: 1.0; stroke-dasharray: 5.0,5.0;" x1="26" x2="26" y1="86.2969" y2="281.0938"/><line style="stroke: #A80036; stroke-width: 1.0; stroke-dasharray: 5.0,5.0;" x1="181.5" x2="181.5" y1="86.2969" y2="281.0938"/><line style="stroke: #A80036; stroke-width: 1.0; stroke-dasharray: 5.0,5.0;" x1="319.5" x2="319.5" y1="86.2969" y2="281.0938"/><text fill="#000000" font-family="sans-serif" font-size="14" lengthAdjust="spacingAndGlyphs" textLength="30" x="8" y="82.9951">user</text><ellipse cx="26" cy="13" fill="#FEFECE" filter="url(#f1lm27spv75uu4)" rx="8" ry="8" style="stroke: #A80036; stroke-width: 2.0;"/><path d="M26,21 L26,48 M13,29 L39,29 M26,48 L13,63 M26,48 L39,63 " fill="none" filter="url(#f1lm27spv75uu4)" style="stroke: #A80036; stroke-width: 2.0;"/><text fill="#000000" font-family="sans-serif" font-size="14" lengthAdjust="spacingAndGlyphs" textLength="30" x="8" y="293.0889">user</text><ellipse cx="26" cy="306.3906" fill="#FEFECE" filter="url(#f1lm27spv75uu4)" rx="8" ry="8" style="stroke: #A80036; stroke-width: 2.0;"/><path d="M26,314.3906 L26,341.3906 M13,322.3906 L39,322.3906 M26,341.3906 L13,356.3906 M26,341.3906 L39,356.3906 " fill="none" filter="url(#f1lm27spv75uu4)" style="stroke: #A80036; stroke-width: 2.0;"/><text fill="#000000" font-family="sans-serif" font-size="14" lengthAdjust="spacingAndGlyphs" textLength="67" x="145.5" y="82.9951">DDB CMS</text><path d="M161.5,42 L161.5,66 M161.5,54 L178.5,54 " fill="none" filter="url(#f1lm27spv75uu4)" style="stroke: #A80036; stroke-width: 2.0;"/><ellipse cx="190.5" cy="54" fill="#FEFECE" filter="url(#f1lm27spv75uu4)" rx="12" ry="12" style="stroke: #A80036; stroke-width: 2.0;"/><text fill="#000000" font-family="sans-serif" font-size="14" lengthAdjust="spacingAndGlyphs" textLength="67" x="145.5" y="293.0889">DDB CMS</text><path d="M161.5,300.3906 L161.5,324.3906 M161.5,312.3906 L178.5,312.3906 " fill="none" filter="url(#f1lm27spv75uu4)" style="stroke: #A80036; stroke-width: 2.0;"/><ellipse cx="190.5" cy="312.3906" fill="#FEFECE" filter="url(#f1lm27spv75uu4)" rx="12" ry="12" style="stroke: #A80036; stroke-width: 2.0;"/><text fill="#000000" font-family="sans-serif" font-size="14" lengthAdjust="spacingAndGlyphs" textLength="143" x="245.5" y="82.9951">Adgangsplatformen</text><path d="M299.5,42 L299.5,66 M299.5,54 L316.5,54 " fill="none" filter="url(#f1lm27spv75uu4)" style="stroke: #A80036; stroke-width: 2.0;"/><ellipse cx="328.5" cy="54" fill="#FEFECE" filter="url(#f1lm27spv75uu4)" rx="12" ry="12" style="stroke: #A80036; stroke-width: 2.0;"/><text fill="#000000" font-family="sans-serif" font-size="14" lengthAdjust="spacingAndGlyphs" textLength="143" x="245.5" y="293.0889">Adgangsplatformen</text><path d="M299.5,300.3906 L299.5,324.3906 M299.5,312.3906 L316.5,312.3906 " fill="none" filter="url(#f1lm27spv75uu4)" style="stroke: #A80036; stroke-width: 2.0;"/><ellipse cx="328.5" cy="312.3906" fill="#FEFECE" filter="url(#f1lm27spv75uu4)" rx="12" ry="12" style="stroke: #A80036; stroke-width: 2.0;"/><polygon fill="#A80036" points="170,113.4297,180,117.4297,170,121.4297,174,117.4297" style="stroke: #A80036; stroke-width: 1.0;"/><line style="stroke: #A80036; stroke-width: 1.0;" x1="26" x2="176" y1="117.4297" y2="117.4297"/><text fill="#000000" font-family="sans-serif" font-size="13" font-weight="bold" lengthAdjust="spacingAndGlyphs" textLength="9" x="33" y="112.3638">1</text><text fill="#000000" font-family="sans-serif" font-size="13" lengthAdjust="spacingAndGlyphs" textLength="119" x="46" y="112.3638">"Click login button"</text><polygon fill="#A80036" points="308,142.5625,318,146.5625,308,150.5625,312,146.5625" style="stroke: #A80036; stroke-width: 1.0;"/><line style="stroke: #A80036; stroke-width: 1.0;" x1="182" x2="314" y1="146.5625" y2="146.5625"/><text fill="#000000" font-family="sans-serif" font-size="13" font-weight="bold" lengthAdjust="spacingAndGlyphs" textLength="9" x="189" y="141.4966">2</text><text fill="#000000" font-family="sans-serif" font-size="13" lengthAdjust="spacingAndGlyphs" textLength="63" x="202" y="141.4966">"Redirect"</text><polygon fill="#A80036" points="37,171.6953,27,175.6953,37,179.6953,33,175.6953" style="stroke: #A80036; stroke-width: 1.0;"/><line style="stroke: #A80036; stroke-width: 1.0; stroke-dasharray: 2.0,2.0;" x1="31" x2="319" y1="175.6953" y2="175.6953"/><text fill="#000000" font-family="sans-serif" font-size="13" font-weight="bold" lengthAdjust="spacingAndGlyphs" textLength="8" x="43" y="170.6294">3</text><text fill="#000000" font-family="sans-serif" font-size="13" lengthAdjust="spacingAndGlyphs" textLength="113" x="55" y="170.6294">"Prompt for login"</text><polygon fill="#A80036" points="308,200.8281,318,204.8281,308,208.8281,312,204.8281" style="stroke: #A80036; stroke-width: 1.0;"/><line style="stroke: #A80036; stroke-width: 1.0;" x1="26" x2="314" y1="204.8281" y2="204.8281"/><text fill="#000000" font-family="sans-serif" font-size="13" font-weight="bold" lengthAdjust="spacingAndGlyphs" textLength="9" x="33" y="199.7622">4</text><text fill="#000000" font-family="sans-serif" font-size="13" lengthAdjust="spacingAndGlyphs" textLength="180" x="46" y="199.7622">"Enter credentials and login"</text><polygon fill="#A80036" points="193,229.9609,183,233.9609,193,237.9609,189,233.9609" style="stroke: #A80036; stroke-width: 1.0;"/><line style="stroke: #A80036; stroke-width: 1.0; stroke-dasharray: 2.0,2.0;" x1="187" x2="319" y1="233.9609" y2="233.9609"/><text fill="#000000" font-family="sans-serif" font-size="13" font-weight="bold" lengthAdjust="spacingAndGlyphs" textLength="9" x="199" y="228.895">5</text><text fill="#000000" font-family="sans-serif" font-size="13" lengthAdjust="spacingAndGlyphs" textLength="101" x="212" y="228.895">"User logged in"</text><polygon fill="#A80036" points="37,259.0938,27,263.0938,37,267.0938,33,263.0938" style="stroke: #A80036; stroke-width: 1.0;"/><line style="stroke: #A80036; stroke-width: 1.0; stroke-dasharray: 2.0,2.0;" x1="31" x2="181" y1="263.0938" y2="263.0938"/><text fill="#000000" font-family="sans-serif" font-size="13" font-weight="bold" lengthAdjust="spacingAndGlyphs" textLength="9" x="43" y="258.0278">6</text><text fill="#000000" font-family="sans-serif" font-size="13" lengthAdjust="spacingAndGlyphs" textLength="73" x="56" y="258.0278">"Wellcome"</text><!--MD5=[5e294de2cca75c83c9ebddb5ef3f3190]
@startuml
autonumber

actor user
boundary "DDB CMS" as cms
boundary "Adgangsplatformen" as login

user -> cms : "Click login button"
cms -> login : "Redirect"
login - -> user : "Prompt for login"
user -> login : "Enter credentials and login"
login - -> cms : "User logged in"
cms - -> user : "Wellcome"
@enduml

PlantUML version 1.2020.09beta17(Unknown compile time)
(GPL source distribution)
Java Runtime: Java(TM) SE Runtime Environment
JVM: Java HotSpot(TM) 64-Bit Server VM
Java Version: 14.0.1+7
Operating System: Linux
Default Encoding: UTF-8
Language: en
Country: US
--></g></svg>